<svg xmlns="http://www.w3.org/2000/svg" viewBox="0 0 22 24">
  <defs>
    <linearGradient id="circleGradient" x1="0%" y1="0%" x2="100%" y2="100%">
      <stop offset="0%" stop-color="#EF79D6"/>
      <stop offset="40%" stop-color="#EF79D6"/>
      <stop offset="50%" stop-color="#B685E8"/>
      <stop offset="60%" stop-color="#1891FF"/>
      <stop offset="100%" stop-color="#1891FF"/>
    </linearGradient>
    
    <mask id="starMask">
      <path fill="white" d="M10.5731 17.5525L6.97245 19.8586C6.59804 20.0984 6.10859 19.9755 5.87924 19.584C5.76721 19.3928 5.73382 19.1625 5.78662 18.9452L6.344 16.6515C6.5452 15.8235 7.08714 15.1314 7.82375 14.7616L11.7519 12.7898C11.935 12.6979 12.0122 12.4682 11.9243 12.2767C11.8531 12.1216 11.6921 12.0349 11.53 12.0642L7.15742 12.8556C6.26858 13.0165 5.3571 12.7599 4.66571 12.1542L3.28439 10.9439C2.94786 10.649 2.90368 10.1248 3.18569 9.77296C3.32286 9.60183 3.5201 9.4956 3.733 9.47818L7.95334 9.13287C8.2515 9.10847 8.51134 8.9112 8.6258 8.62233L10.2539 4.51329C10.422 4.08919 10.887 3.88781 11.2927 4.0635C11.4874 4.14786 11.6422 4.30965 11.7229 4.51329L13.351 8.62233C13.4655 8.9112 13.7253 9.10847 14.0235 9.13287L18.2671 9.48008C18.7048 9.5159 19.0318 9.91593 18.9975 10.3736C18.9811 10.5937 18.8814 10.798 18.7207 10.9412L15.4844 13.8259C15.2565 14.0289 15.1572 14.3486 15.2272 14.6529L16.2222 18.9743C16.3249 19.4206 16.0622 19.8695 15.6354 19.9769C15.4302 20.0286 15.2139 19.9928 15.034 19.8775L11.4037 17.5525C11.1488 17.3893 10.828 17.3893 10.5731 17.5525Z"/>
    </mask>
  </defs>
  
  <g mask="url(#starMask)">
    <circle cx="11" cy="12" r="12" fill="url(#circleGradient)">
      <animateTransform
        attributeName="transform"
        type="rotate"
        from="0 11 12"
        to="360 11 12"
        dur="10s"
        repeatCount="indefinite"
      />
    </circle>
  </g>
</svg>