<svg width="19" height="16" viewBox="0 0 19 16" fill="none" xmlns="http://www.w3.org/2000/svg">
<path id="Vector" d="M1.30596 6.88797C6.4072 4.63021 9.80802 3.1417 11.5084 2.42245C16.3691 0.368853 17.3779 0.0121885 18.0367 0.000105283C18.1816 -0.00225581 18.5042 0.0341325 18.7147 0.207048C18.8896 0.35288 18.9388 0.550101 18.9634 0.688573C18.9853 0.826905 19.0154 1.14218 18.9908 1.38829C18.7283 4.19938 17.5884 11.021 17.0088 14.1696C16.7655 15.5018 16.2816 15.9485 15.8141 15.9921C14.7972 16.0871 14.0262 15.3099 13.0421 14.6546C11.503 13.6288 10.6336 12.9904 9.13824 11.9896C7.41049 10.8329 8.53134 10.1971 9.5155 9.15823C9.77248 8.88629 14.2504 4.74882 14.3352 4.37355C14.3461 4.3266 14.357 4.1516 14.2531 4.05938C14.152 3.96688 14.0016 3.99855 13.8923 4.02355C13.7365 4.0591 11.2788 5.71131 6.51108 8.9799C5.81396 9.46712 5.18246 9.70462 4.61384 9.69212C3.99053 9.67851 2.78767 9.33323 1.89372 9.03823C0.800212 8.67629 -0.0718645 8.4849 0.00468136 7.87019C0.0429543 7.55019 0.477625 7.22269 1.30596 6.88797Z" fill="white"/>
</svg>
