<svg width="24" height="24" viewBox="0 0 24 24" fill="none" xmlns="http://www.w3.org/2000/svg">
<path fill-rule="evenodd" clip-rule="evenodd" d="M10.4323 19.5043L5.50983 22.5747C4.99798 22.8939 4.32885 22.7302 4.01531 22.2091C3.86215 21.9546 3.8165 21.6478 3.88868 21.3586L4.65068 18.3048C4.92574 17.2024 5.66663 16.281 6.67364 15.7887L12.0438 13.1635C12.2942 13.0411 12.3997 12.7352 12.2795 12.4803C12.1821 12.2739 11.962 12.1583 11.7404 12.1974L5.7627 13.2511C4.54758 13.4653 3.30148 13.1236 2.35629 12.3172L0.467889 10.7059C0.00782566 10.3133 -0.0525825 9.61533 0.332964 9.14691C0.52048 8.91907 0.790131 8.77763 1.08118 8.75445L6.85081 8.2947C7.25842 8.26222 7.61364 7.99958 7.77012 7.61499L9.99594 2.14432C10.2257 1.57968 10.8615 1.31157 11.416 1.54548C11.6823 1.65779 11.8938 1.8732 12.0042 2.14432L14.23 7.61499C14.3864 7.99958 14.7417 8.26222 15.1493 8.2947L20.9507 8.75698C21.5491 8.80466 21.9961 9.33725 21.9493 9.94656C21.9268 10.2397 21.7906 10.5116 21.5709 10.7023L17.1466 14.5428C16.8349 14.8132 16.6992 15.2388 16.7949 15.644L18.1551 21.3973C18.2956 21.9915 17.9364 22.5891 17.3529 22.7322C17.0724 22.801 16.7766 22.7533 16.5307 22.5998L11.5678 19.5043C11.2194 19.287 10.7807 19.287 10.4323 19.5043Z" fill="url(#paint0_linear_925_7261)"/>
<defs>
<linearGradient id="paint0_linear_925_7261" x1="16.1945" y1="5.68416" x2="5.95921" y2="20.849" gradientUnits="userSpaceOnUse">
<stop stop-color="#EF79D6"/>
<stop offset="1" stop-color="#1891FF"/>
</linearGradient>
</defs>
</svg>
