<svg width="24" height="24" viewBox="0 0 24 24" fill="none" xmlns="http://www.w3.org/2000/svg">
<g clip-path="url(#clip0_6_126)">
<path d="M16.6486 3.74219C16.8791 3.20703 16.7072 2.58203 16.2345 2.23828C15.7619 1.89453 15.1173 1.92578 14.6759 2.30859L4.67594 11.0586C4.28531 11.4023 4.14469 11.9531 4.32828 12.4375C4.51187 12.9219 4.98062 13.25 5.50015 13.25H9.85562L6.85172 20.2578C6.62125 20.793 6.79312 21.418 7.26578 21.7617C7.73844 22.1055 8.38297 22.0742 8.82437 21.6914L18.8244 12.9414C19.215 12.5977 19.3556 12.0469 19.172 11.5625C18.9884 11.0781 18.5236 10.7539 18.0002 10.7539H13.6447L16.6486 3.74219Z" fill="white"/>
</g>
<defs>
<clipPath id="clip0_6_126">
<rect width="17.5" height="20" fill="white" transform="translate(3 2)"/>
</clipPath>
</defs>
</svg>
