<svg xmlns="http://www.w3.org/2000/svg" version="1.0" width="24px" height="24px" viewBox="0 0 512.000000 512.000000" preserveAspectRatio="xMidYMid meet">

<g transform="translate(0.000000,512.000000) scale(0.100000,-0.100000)" fill="#ffffff" stroke="none">
<path d="M388 5104 c-263 -63 -431 -325 -377 -586 39 -187 200 -348 387 -387 166 -35 330 15 453 138 199 199 199 501 -1 701 -125 125 -296 175 -462 134z"/>
<path d="M4508 5104 c-263 -63 -431 -325 -377 -586 39 -187 200 -348 387 -387 166 -35 330 15 453 138 199 199 199 501 -1 701 -125 125 -296 175 -462 134z"/>
<path d="M2557 4751 c-15 -10 -34 -27 -42 -38 -7 -10 -111 -201 -230 -424 -150 -279 -219 -417 -222 -445 -7 -52 18 -106 61 -137 30 -21 43 -22 278 -27 l247 -5 -156 -279 c-142 -253 -157 -285 -157 -328 0 -94 95 -166 183 -140 22 7 52 23 65 35 13 12 125 202 248 422 202 362 223 404 223 447 0 50 -20 86 -69 122 -25 20 -45 21 -276 26 l-248 5 159 295 159 295 -3 59 c-3 54 -7 62 -45 97 -37 35 -47 39 -94 39 -35 0 -63 -7 -81 -19z"/>
<path d="M1023 4017 c-34 -29 -89 -69 -122 -88 l-59 -35 65 -117 65 -117 34 29 c43 38 106 74 169 97 28 9 52 19 53 20 4 2 -138 265 -142 264 0 -1 -29 -25 -63 -53z"/>
<path d="M3961 3941 c-39 -71 -71 -131 -71 -133 0 -3 19 -10 43 -17 45 -14 145 -67 189 -103 15 -12 29 -20 31 -17 2 2 31 53 65 113 l60 109 -56 34 c-56 34 -80 51 -153 113 l-37 30 -71 -129z"/>
<path d="M1273 3504 c-61 -22 -136 -94 -164 -156 -34 -77 -33 -184 3 -253 56 -108 151 -167 269 -167 257 0 394 301 223 491 -65 73 -111 94 -209 98 -54 2 -94 -2 -122 -13z"/>
<path d="M3633 3504 c-58 -21 -129 -87 -161 -148 -22 -43 -26 -64 -26 -131 0 -67 4 -88 26 -130 57 -108 151 -167 269 -167 308 0 410 401 141 559 -37 22 -60 27 -126 30 -55 2 -95 -2 -123 -13z"/>
<path d="M1745 2749 c-41 -32 -156 -92 -196 -102 -21 -6 -20 -8 24 -89 25 -46 56 -102 69 -126 18 -34 27 -41 43 -37 97 28 173 45 198 45 17 0 40 9 53 21 l22 20 -82 149 c-44 82 -83 150 -86 150 -3 -1 -23 -14 -45 -31z"/>
<path d="M3242 2627 c-82 -149 -83 -152 -63 -168 11 -9 48 -19 81 -23 34 -4 91 -16 127 -27 36 -11 66 -19 68 -17 8 10 135 245 135 251 0 4 -8 7 -18 7 -28 0 -155 65 -194 99 -20 17 -40 31 -44 31 -5 0 -46 -69 -92 -153z"/>
<path d="M2412 2400 c-105 -28 -166 -64 -253 -150 -121 -119 -172 -241 -173 -412 0 -54 3 -100 7 -104 4 -4 27 12 52 34 137 127 315 194 515 194 122 1 210 -18 318 -68 76 -34 182 -105 216 -143 28 -31 36 -12 36 88 0 161 -54 295 -165 406 -150 151 -352 208 -553 155z"/>
<path d="M450 2281 c-47 -25 -71 -60 -77 -113 -5 -47 14 -100 46 -126 9 -7 146 -78 304 -157 306 -154 326 -160 393 -129 75 36 102 120 64 199 l-22 46 -299 149 c-321 161 -342 167 -409 131z"/>
<path d="M4212 2151 c-333 -166 -342 -173 -342 -265 0 -89 56 -146 143 -146 39 0 90 22 343 148 250 124 300 152 320 182 47 68 24 166 -48 210 -67 40 -91 33 -416 -129z"/>
<path d="M3403 2066 c19 -49 29 -161 25 -271 l-6 -121 58 -23 c32 -12 95 -46 139 -76 48 -32 83 -50 87 -43 10 16 -6 145 -26 212 -28 88 -86 180 -156 245 -71 66 -131 104 -121 77z"/>
<path d="M1654 2042 c-57 -42 -145 -141 -177 -199 -35 -66 -67 -190 -67 -265 0 -32 2 -58 5 -58 2 0 33 20 69 45 36 25 99 62 141 81 58 27 75 39 71 52 -19 69 -14 251 10 346 8 33 -4 33 -52 -2z"/>
<path d="M2492 1660 c-218 -31 -391 -213 -409 -432 -19 -229 132 -445 352 -503 331 -86 641 191 595 530 -36 256 -281 441 -538 405z"/>
<path d="M1715 1358 c-85 -46 -203 -166 -243 -249 -82 -170 -80 -372 5 -532 38 -72 164 -195 239 -235 198 -103 463 -79 625 58 31 26 32 29 14 35 -284 93 -468 276 -546 544 -27 91 -35 257 -17 344 18 81 14 83 -77 35z"/>
<path d="M3313 1376 c4 -9 11 -54 17 -100 31 -254 -76 -522 -277 -689 -61 -50 -180 -116 -248 -137 -57 -18 -60 -24 -24 -54 83 -70 218 -117 341 -118 161 -2 297 51 407 160 186 184 229 438 114 671 -59 120 -205 251 -307 277 -25 6 -28 4 -23 -10z"/>
<path d="M630 945 c-406 -78 -392 -74 -434 -137 -36 -55 -15 -158 38 -193 58 -38 73 -37 409 26 181 34 334 68 350 77 89 53 90 198 2 251 -16 10 -43 21 -60 23 -16 3 -154 -18 -305 -47z"/>
<path d="M4090 972 c-97 -48 -109 -189 -21 -251 21 -15 111 -37 341 -81 171 -33 326 -60 344 -60 37 0 89 31 119 72 40 54 19 154 -43 199 -17 13 -125 38 -338 79 -172 33 -325 60 -340 60 -15 0 -43 -8 -62 -18z"/>
<path d="M2505 149 c-27 -22 -77 -53 -110 -71 l-60 -32 60 -20 c84 -27 247 -27 330 1 l60 19 -61 32 c-33 17 -80 46 -105 64 -24 19 -48 36 -54 39 -5 4 -32 -11 -60 -32z"/>
</g>
</svg>