<svg xmlns="http://www.w3.org/2000/svg" version="1.0" width="24px" height="24px" viewBox="0 0 512.000000 512.000000" preserveAspectRatio="xMidYMid meet">

<g transform="translate(0.000000,512.000000) scale(0.100000,-0.100000)" fill="#ffffff" stroke="none">
<path d="M2395 5115 c-11 -2 -67 -9 -125 -15 -424 -48 -895 -237 -1231 -496 l-60 -46 -55 38 c-219 155 -234 164 -277 164 -42 0 -100 -27 -124 -59 -26 -34 -32 -101 -49 -618 -19 -588 -20 -568 44 -624 32 -29 40 -31 91 -27 37 3 242 66 592 181 506 167 539 179 567 212 48 54 54 123 15 182 -9 14 -71 61 -137 105 -67 45 -123 83 -125 85 -9 7 38 35 174 103 418 209 883 263 1321 153 l112 -28 4 100 c3 91 7 107 40 178 45 93 114 164 205 209 35 17 63 32 63 34 0 7 -257 86 -353 109 -169 40 -292 56 -487 60 -102 2 -194 2 -205 0z"/>
<path d="M3504 4641 c-17 -10 -41 -32 -53 -47 -40 -50 -29 -96 162 -675 167 -506 179 -539 212 -567 54 -48 123 -54 182 -15 14 9 61 71 105 137 45 67 83 123 85 125 15 18 164 -286 212 -435 119 -365 131 -758 33 -1106 l-19 -68 82 0 c186 0 328 -84 416 -246 l37 -66 36 108 c88 267 120 473 120 769 0 290 -32 501 -114 760 -84 262 -240 563 -396 766 l-46 60 38 55 c154 217 164 234 164 275 0 51 -32 110 -72 134 -37 21 -42 22 -583 40 -556 19 -563 19 -601 -4z"/>
<path d="M2500 3894 c-19 -9 -44 -27 -56 -42 -22 -29 -890 -1475 -918 -1529 -34 -67 -6 -153 64 -192 37 -20 49 -21 429 -21 l391 0 0 -387 c0 -357 2 -391 19 -429 14 -31 30 -47 63 -63 24 -11 54 -21 66 -21 43 0 100 31 125 68 34 50 884 1467 908 1514 10 21 19 51 19 69 0 45 -36 103 -80 128 -37 20 -49 21 -429 21 l-391 0 0 385 c0 437 -1 441 -72 488 -47 30 -86 33 -138 11z"/>
<path d="M137 3334 c-99 -300 -131 -492 -131 -779 0 -280 33 -495 114 -750 84 -262 240 -563 396 -766 l46 -60 -38 -55 c-155 -219 -164 -234 -164 -277 0 -42 27 -100 59 -124 34 -26 101 -32 618 -49 588 -19 568 -20 624 44 29 32 31 40 27 91 -3 37 -66 242 -181 592 -167 506 -179 539 -212 567 -54 48 -123 54 -182 15 -14 -9 -61 -71 -105 -137 -45 -67 -83 -123 -85 -125 -15 -18 -164 286 -212 435 -119 365 -131 758 -33 1107 l19 67 -82 0 c-188 0 -330 88 -414 257 l-28 56 -36 -109z"/>
<path d="M4465 1685 c-5 -2 -251 -83 -546 -179 -507 -166 -539 -178 -567 -211 -48 -54 -54 -123 -15 -182 9 -14 71 -61 137 -105 67 -45 123 -83 125 -85 9 -7 -38 -35 -174 -103 -418 -209 -883 -263 -1321 -153 l-112 28 -4 -100 c-3 -91 -7 -107 -40 -178 -45 -93 -114 -164 -205 -209 -35 -17 -63 -32 -63 -34 0 -6 255 -86 351 -109 192 -46 309 -59 534 -59 280 0 495 33 750 114 262 84 563 240 766 396 l60 46 55 -38 c219 -155 234 -164 277 -164 42 0 100 27 124 59 26 34 32 101 49 618 19 586 20 568 -43 623 -28 25 -42 30 -81 29 -26 0 -51 -2 -57 -4z"/>
</g>
</svg>