<svg xmlns="http://www.w3.org/2000/svg" version="1.0" width="24px" height="24px" viewBox="0 0 512 512" preserveAspectRatio="xMidYMid meet">
  <g transform="translate(0,512) scale(0.1,-0.1)" fill="#ffffff" stroke="none">
    <path d="M2330 4654 c-496 -66 -950 -307 -1283 -681 -158 -177 -282 -384 -372 -618 -55 -144 -100 -330 -122 -500 -21 -163 -15 -439 14 -605 44 -254 116 -460 239 -685 282 -515 775 -889 1349 -1024 151 -36 289 -51 480 -51 191 0 329 15 480 51 574 135 1067 509 1349 1024 123 225 195 431 239 685 29 166 35 442 14 605 -22 170 -67 356 -122 500 -176 458 -502 842 -918 1081 -252 145 -550 239 -842 265 -125 11 -382 11 -505 -47z m438 -334 c348 -45 651 -171 918 -383 95 -75 262 -242 337 -337 157 -198 271 -435 330 -685 32 -132 41 -217 41 -375 0 -158 -9 -243 -41 -375 -59 -250 -173 -487 -330 -685 -75 -95 -242 -262 -337 -337 -198 -157 -435 -271 -685 -330 -132 -32 -217 -41 -375 -41 -158 0 -243 9 -375 41 -250 59 -487 173 -685 330 -95 75 -262 242 -337 337 -157 198 -271 435 -330 685 -32 132 -41 217 -41 375 0 158 9 243 41 375 59 250 173 487 330 685 75 95 242 262 337 337 264 210 547 330 893 381 118 17 392 20 509 4z"/>
    <path d="M2410 3700 c-203 -54 -361 -228 -395 -435 -22 -138 4 -270 77 -386 65 -103 199 -200 318 -229 52 -13 89 -15 184 -10 144 8 214 29 311 95 151 103 235 260 235 441 0 181 -84 338 -235 441 -131 89 -328 123 -495 83z"/>
    <path d="M2395 2635 c-16 -9 -41 -26 -55 -39 -24 -23 -25 -27 -28 -185 -3 -158 -2 -162 22 -195 53 -72 182 -72 235 0 24 33 25 37 22 195 -3 158 -4 162 -28 185 -50 46 -120 63 -168 39z"/>
  </g>
</svg>