<svg xmlns="http://www.w3.org/2000/svg" version="1.0" width="24px" height="24px" viewBox="0 0 512.000000 512.000000" preserveAspectRatio="xMidYMid meet">
<g transform="translate(0.000000,512.000000) scale(0.100000,-0.100000)" fill="#ffffff" stroke="none">
<path d="M1850 4773 c-8 -3 -53 -31 -100 -62 -114 -74 -307 -268 -384 -385 -109 -166 -192 -371 -227 -566 -22 -120 -18 -393 8 -513 32 -145 71 -258 133 -382 67 -134 102 -166 186 -173 55 -5 56 -4 100 39 48 47 69 100 58 146 -3 15 -23 60 -44 98 -98 184 -133 324 -134 545 -1 169 10 243 55 378 79 234 236 439 439 572 41 28 85 57 97 65 12 9 28 33 34 54 22 74 -11 149 -77 177 -33 14 -115 18 -144 7z"/>
<path d="M3065 4659 c-319 -44 -637 -200 -855 -420 -145 -146 -272 -358 -340 -567 -35 -111 -38 -160 -9 -219 25 -52 61 -73 124 -73 91 0 135 42 169 161 55 191 121 309 244 440 181 192 389 309 631 355 110 21 318 21 426 0 106 -21 148 -20 196 4 58 30 81 72 76 138 -7 94 -53 134 -187 163 -111 23 -367 33 -475 18z"/>
<path d="M3316 3985 c-175 -29 -352 -88 -501 -168 -67 -36 -83 -49 -103 -89 -28 -54 -24 -107 11 -159 62 -91 126 -96 269 -22 97 50 211 91 323 114 79 17 353 17 430 1 308 -67 561 -235 733 -490 46 -67 74 -98 102 -112 51 -26 119 -26 153 0 36 28 61 99 55 155 -14 117 -258 404 -458 536 -166 110 -352 187 -541 224 -117 23 -361 28 -473 10z"/>
<path d="M573 3711 c-52 -24 -69 -56 -94 -175 -69 -328 -8 -704 163 -1008 179 -319 454 -542 808 -659 145 -47 233 -30 277 54 34 66 11 176 -44 212 -14 9 -62 28 -108 41 -175 51 -299 123 -439 255 -204 192 -307 371 -352 606 -21 111 -21 310 0 418 21 106 20 148 -4 196 -39 75 -120 99 -207 60z"/>
<path d="M2428 3350 c-315 -57 -553 -272 -640 -577 -32 -112 -32 -314 0 -426 79 -277 282 -480 559 -559 112 -32 314 -32 426 0 277 79 480 282 559 559 32 112 32 314 0 426 -79 275 -282 480 -554 557 -82 24 -272 35 -350 20z"/>
<path d="M3451 3258 c-78 -38 -101 -134 -51 -216 26 -42 51 -56 144 -81 179 -49 316 -133 462 -283 115 -119 167 -192 229 -321 112 -233 140 -496 79 -732 -26 -100 1 -186 70 -219 79 -38 188 2 231 85 49 94 67 454 32 634 -77 390 -277 713 -573 924 -156 111 -435 231 -537 231 -23 0 -62 -10 -86 -22z"/>
<path d="M3582 2423 c-55 -27 -86 -77 -86 -137 0 -42 10 -68 51 -146 194 -361 173 -809 -52 -1156 -71 -111 -221 -260 -332 -333 -66 -42 -87 -62 -104 -98 -59 -121 32 -246 168 -230 32 3 67 20 128 60 328 219 541 542 621 942 27 135 25 406 -4 538 -29 134 -75 262 -134 382 -64 129 -80 149 -131 174 -52 25 -81 26 -125 4z"/>
<path d="M421 2062 c-58 -29 -76 -63 -76 -145 0 -71 1 -73 60 -162 79 -120 271 -312 389 -389 160 -106 354 -185 543 -223 134 -26 405 -24 539 5 193 42 454 149 510 209 13 14 29 43 34 64 29 107 -75 227 -177 203 -15 -3 -59 -23 -98 -44 -160 -85 -306 -126 -495 -136 -418 -24 -815 184 -1027 536 -42 69 -84 100 -138 100 -16 0 -45 -8 -64 -18z"/>
<path d="M3076 1735 c-62 -22 -85 -53 -112 -148 -54 -194 -134 -325 -286 -473 -119 -115 -192 -167 -321 -229 -233 -112 -496 -140 -731 -79 -169 44 -282 -68 -217 -213 25 -54 53 -71 154 -94 190 -42 419 -44 613 -4 427 89 780 357 978 743 63 125 126 301 126 356 0 58 -34 114 -83 137 -50 22 -69 23 -121 4z"/>
</g>
</svg>