<svg width="30" height="37" viewBox="0 0 30 37" fill="none" xmlns="http://www.w3.org/2000/svg">
<g filter="url(#filter0_d_4524_6810)">
<path d="M9.51953 15.2941C9.51953 12.1753 11.9909 9.64703 15.0395 9.64703C18.0881 9.64703 20.5595 12.1753 20.5595 15.2941C20.5595 18.4129 18.0881 20.9412 15.0395 20.9412C11.9909 20.9412 9.51953 18.4129 9.51953 15.2941Z" fill="white" fill-opacity="0.2"/>
<path d="M11.3595 15.2941C11.3595 13.2149 13.0071 11.5294 15.0395 11.5294C17.0719 11.5294 18.7195 13.2149 18.7195 15.2941C18.7195 17.3733 17.0719 19.0588 15.0395 19.0588C13.0071 19.0588 11.3595 17.3733 11.3595 15.2941Z" fill="white" fill-opacity="0.5"/>
<path d="M13.1995 15.2941C13.1995 14.2545 14.0233 13.4117 15.0395 13.4117C16.0557 13.4117 16.8795 14.2545 16.8795 15.2941C16.8795 16.3337 16.0557 17.1764 15.0395 17.1764C14.0233 17.1764 13.1995 16.3337 13.1995 15.2941Z" fill="white"/>
</g>
<path fill-rule="evenodd" clip-rule="evenodd" d="M24.1998 24.177C23.9118 24.2138 23.7349 24.3091 23.5352 24.5238C23.3803 24.7321 23.3409 24.9763 23.3062 25.2302C23.2785 25.4122 23.2371 25.5242 23.1064 25.6578C22.9396 25.7487 22.8285 25.7966 22.639 25.7821C22.4768 25.7086 22.3922 25.6326 22.2828 25.4893C22.2233 25.2544 22.2101 25.0376 22.214 24.7956L22.216 24.593C22.2174 24.4883 22.219 24.3836 22.2208 24.2789C22.2456 23.5197 22.2456 23.5197 21.907 22.8713C21.6958 22.678 21.4453 22.5909 21.1627 22.5909C20.8551 22.6421 20.652 22.7627 20.4379 22.9953C20.212 23.3374 20.2244 23.7774 20.236 24.1908C20.2384 24.2751 20.2407 24.3583 20.241 24.4393L20.2415 24.5949C20.242 24.697 20.243 24.7991 20.2443 24.9012L20.2455 25.0439L20.2472 25.1713C20.2358 25.3619 20.1924 25.4663 20.0755 25.6157C19.9144 25.7497 19.8219 25.785 19.6143 25.7926C19.4816 25.7488 19.3807 25.6944 19.2849 25.5904C19.1786 25.357 19.1369 25.1845 19.1392 24.9235L19.1394 24.8293C19.1399 24.7293 19.1412 24.6292 19.1425 24.5292L19.1425 24.5246C19.143 24.4533 19.1433 24.3821 19.1436 24.3108C19.1445 24.1239 19.1461 23.937 19.1479 23.7501C19.1507 23.4509 19.1527 23.1518 19.1542 22.8527C19.1549 22.7487 19.156 22.6447 19.1572 22.5408L19.1585 22.3478L19.1601 22.179C19.1451 21.8359 19.0737 21.5717 18.8566 21.3102C18.6207 21.1076 18.36 21.0405 18.0536 21.0405C17.7081 21.117 17.492 21.2538 17.2925 21.5535C17.1532 21.9071 17.1608 22.304 17.1681 22.6858C17.1694 22.7539 17.1707 22.8215 17.1711 22.8883L17.1717 23.0986C17.1721 23.2817 17.1729 23.4648 17.1738 23.6478C17.1752 23.9421 17.1762 24.2364 17.177 24.5307C17.1773 24.6332 17.1779 24.7358 17.1785 24.8384L17.1791 25.026L17.1799 25.1915C17.1738 25.4188 17.0732 25.5202 16.9239 25.671C16.9186 25.6764 16.9132 25.6818 16.9077 25.6873C16.8703 25.7159 16.8478 25.7331 16.8229 25.7449C16.7855 25.7626 16.7425 25.7682 16.6349 25.7821C16.398 25.7456 16.3119 25.6783 16.1551 25.4893C16.0338 25.1729 16.0394 24.8408 16.045 24.5067C16.0459 24.4551 16.0468 24.4034 16.0472 24.3517C16.0474 24.2738 16.0476 24.196 16.0478 24.1181C16.0482 23.9509 16.0489 23.7838 16.0499 23.6167C16.0514 23.3522 16.0521 23.0878 16.0527 22.8233C16.0542 22.1667 16.0568 21.51 16.0596 20.8534C16.0618 20.3426 16.0637 19.8319 16.0647 19.3212C16.0652 19.0585 16.0664 18.7957 16.068 18.533C16.0689 18.3694 16.0692 18.2059 16.0694 18.0424C16.0696 17.9667 16.07 17.891 16.0707 17.8153C16.0716 17.7118 16.0716 17.6083 16.0715 17.5047L16.0722 17.3294C16.0449 17.0467 15.9522 16.8137 15.7418 16.6176C15.4831 16.4271 15.2157 16.3594 14.9012 16.4019C14.635 16.4606 14.4437 16.6107 14.2773 16.8277C14.0941 17.1785 14.1006 17.5864 14.1068 17.9809C14.1079 18.0445 14.1089 18.1077 14.1091 18.1703L14.1091 18.3148C14.1092 18.4723 14.1095 18.6297 14.1099 18.7872L14.1099 18.7898L14.1102 19.132C14.1104 19.3769 14.1107 19.6218 14.1111 19.8667C14.1117 20.2209 14.112 20.5751 14.1122 20.9294C14.1126 21.5044 14.1131 22.0794 14.1137 22.6544L14.1138 22.7585C14.1143 23.2469 14.1149 23.7354 14.1156 24.2238L14.1157 24.3282L14.1159 24.4325C14.1166 25.006 14.1171 25.5794 14.1174 26.1528C14.1176 26.4746 14.1179 26.7963 14.1185 27.1181C14.1191 27.4202 14.1194 27.7223 14.1194 28.0244C14.1195 28.1355 14.1197 28.2466 14.12 28.3577C14.1204 28.5088 14.1204 28.6599 14.1203 28.8111L14.1209 28.9455L14.1206 29.0678L14.1207 29.1735C14.1051 29.347 14.0066 29.4508 13.8955 29.5678C13.8841 29.5798 13.8726 29.592 13.861 29.6044C13.7612 29.6866 13.6749 29.7297 13.5525 29.7696C13.215 29.6585 12.8796 29.3812 12.573 29.1277C12.4638 29.0374 12.3582 28.9501 12.2576 28.8744C12.1232 28.7735 11.9886 28.6728 11.8539 28.5722C11.5198 28.3224 11.1859 28.0721 10.8521 27.8219C10.5693 27.6098 10.2864 27.398 10.0033 27.1865C9.87131 27.0877 9.73952 26.9887 9.60773 26.8897L9.36283 26.7066L9.25352 26.6241C8.81205 26.2954 8.36979 25.9737 7.80061 26.0388C7.46066 26.1098 7.17548 26.2507 6.96362 26.5341C6.90951 26.7001 6.88058 26.8097 6.92796 26.9794C7.02065 27.1519 7.14437 27.2775 7.2795 27.4146L7.29329 27.4286L7.38643 27.5249C7.48939 27.631 7.59281 27.7367 7.69623 27.8424L7.69685 27.843C7.77091 27.9192 7.84494 27.9954 7.91895 28.0716C8.12028 28.2788 8.32204 28.4855 8.52392 28.6921C8.65022 28.8214 8.77643 28.9508 8.90261 29.0803C9.32067 29.5091 9.73901 29.9377 10.1577 30.366L10.2261 30.4359L10.2945 30.5059C10.6595 30.8792 11.0238 31.2531 11.3877 31.6274C11.7623 32.0126 12.1375 32.3972 12.5131 32.7814C12.7236 32.9967 12.9339 33.2122 13.1436 33.4283C13.3415 33.6319 13.5399 33.8349 13.7388 34.0375C13.8112 34.1114 13.8834 34.1856 13.9554 34.26C14.5125 34.8359 15.1197 35.3855 15.8731 35.6739L15.9842 35.718C16.8646 36.0534 17.7883 36.0502 18.7139 36.047C18.819 36.0466 18.9241 36.0463 19.0292 36.0464C19.1901 36.0467 19.3511 36.0478 19.512 36.0488C20.6221 36.0527 21.6001 35.9311 22.5793 35.3642L22.7255 35.28C23.7939 34.6086 24.5131 33.5231 24.8466 32.301C24.9726 31.7424 24.9982 31.1791 25.0142 30.6082C25.0186 30.4675 25.026 30.3271 25.0337 30.1867C25.053 29.8248 25.0679 29.4627 25.0829 29.1006L25.0831 29.0955C25.1003 28.6783 25.1187 28.2613 25.1408 27.8443C25.15 27.6604 25.1579 27.4764 25.1655 27.2924C25.1774 27.0048 25.1914 26.7173 25.2066 26.4298C25.2127 26.3084 25.2182 26.1869 25.2231 26.0654L25.2273 25.962C25.2311 25.8655 25.2349 25.7691 25.2386 25.6726C25.245 25.5446 25.2542 25.4195 25.267 25.2922C25.2883 25.0239 25.2527 24.7786 25.0844 24.5646C24.8239 24.2818 24.5836 24.1572 24.1998 24.177Z" fill="white"/>
<defs>
<filter id="filter0_d_4524_6810" x="0.519531" y="0.647034" width="29.04" height="29.2941" filterUnits="userSpaceOnUse" color-interpolation-filters="sRGB">
<feFlood flood-opacity="0" result="BackgroundImageFix"/>
<feColorMatrix in="SourceAlpha" type="matrix" values="0 0 0 0 0 0 0 0 0 0 0 0 0 0 0 0 0 0 127 0" result="hardAlpha"/>
<feOffset/>
<feGaussianBlur stdDeviation="4.5"/>
<feComposite in2="hardAlpha" operator="out"/>
<feColorMatrix type="matrix" values="0 0 0 0 1 0 0 0 0 1 0 0 0 0 1 0 0 0 1 0"/>
<feBlend mode="normal" in2="BackgroundImageFix" result="effect1_dropShadow_4524_6810"/>
<feBlend mode="normal" in="SourceGraphic" in2="effect1_dropShadow_4524_6810" result="shape"/>
</filter>
</defs>
</svg>
