<svg width="27" height="32" viewBox="0 0 27 32" fill="none" xmlns="http://www.w3.org/2000/svg">
<path fill-rule="evenodd" clip-rule="evenodd" d="M19.3514 16.281C19.078 16.3721 18.9241 16.4974 18.7712 16.7411C18.6607 16.97 18.6699 17.2107 18.6854 17.4597C18.6938 17.6387 18.6753 17.7536 18.5739 17.9066C18.429 18.0257 18.3301 18.093 18.1425 18.1161C17.9701 18.0775 17.8729 18.0214 17.7384 17.9059C17.6347 17.6934 17.5796 17.489 17.5364 17.2574L17.4989 17.0636C17.4799 16.9634 17.4611 16.8632 17.4425 16.763C17.319 16.0338 17.319 16.0338 16.8629 15.4809C16.6194 15.3375 16.3583 15.3031 16.0829 15.358C15.793 15.4667 15.6186 15.6212 15.4552 15.8848C15.3015 16.2552 15.3992 16.6726 15.491 17.0649C15.5097 17.1448 15.5281 17.2237 15.5442 17.3009L15.5749 17.4493C15.5953 17.5467 15.6161 17.6439 15.6373 17.7411L15.6662 17.8771L15.6926 17.9982C15.7185 18.1823 15.6966 18.2904 15.6117 18.4557C15.4807 18.6149 15.3974 18.6665 15.1966 18.7142C15.0588 18.6982 14.9499 18.6658 14.8362 18.5853C14.6872 18.3832 14.613 18.2267 14.5645 17.9772L14.5464 17.8873C14.5274 17.7918 14.5092 17.6961 14.491 17.6003L14.4902 17.5959C14.4767 17.5279 14.4632 17.4598 14.4496 17.3918C14.4141 17.2132 14.3793 17.0346 14.3447 16.8558C14.2893 16.5699 14.233 16.2841 14.1763 15.9984C14.1567 15.899 14.1376 15.7996 14.1185 15.7001L14.0822 15.5158L14.051 15.3544C13.9697 15.0299 13.8486 14.7916 13.5862 14.5843C13.3168 14.4369 13.0498 14.4236 12.7511 14.4832C12.4292 14.6233 12.2452 14.7959 12.1091 15.1206C12.0421 15.4851 12.1267 15.8623 12.2081 16.2252C12.2226 16.29 12.237 16.3542 12.2505 16.4179L12.2919 16.6185C12.3279 16.7931 12.3643 16.9676 12.4008 17.1421C12.4595 17.4226 12.5177 17.7033 12.5757 17.9839C12.5959 18.0817 12.6164 18.1795 12.637 18.2773L12.6741 18.4561L12.7071 18.614C12.7453 18.832 12.667 18.9484 12.5508 19.1212C12.5467 19.1274 12.5425 19.1336 12.5382 19.14C12.5073 19.1745 12.4888 19.1953 12.4668 19.2114C12.4337 19.2356 12.3929 19.2492 12.2908 19.2834C12.0527 19.2947 11.9558 19.2472 11.7662 19.0973C11.5864 18.819 11.5273 18.5011 11.4678 18.1811C11.4586 18.1317 11.4494 18.0822 11.4397 18.0328C11.4248 17.9585 11.4098 17.8841 11.3948 17.8098C11.3627 17.6502 11.3309 17.4906 11.2994 17.3309C11.2494 17.0783 11.1986 16.8258 11.1477 16.5734C11.0215 15.9465 10.8962 15.3194 10.7713 14.6923C10.6741 14.2045 10.5766 13.7168 10.4782 13.2293C10.4276 12.9785 10.3776 12.7275 10.3281 12.4765C10.2971 12.3203 10.2657 12.1642 10.234 12.0081C10.2195 11.9358 10.2052 11.8635 10.1911 11.7912C10.1718 11.6922 10.1517 11.5934 10.1315 11.4946L10.0981 11.3272C10.0164 11.0628 9.88079 10.8585 9.63754 10.7122C9.34837 10.5808 9.0746 10.5682 8.77632 10.6699C8.52832 10.7776 8.37104 10.958 8.25109 11.1975C8.14079 11.5678 8.22646 11.9558 8.3093 12.331C8.32265 12.3915 8.33593 12.4516 8.3483 12.5113L8.37646 12.6492C8.40719 12.7994 8.43815 12.9496 8.46911 13.0998L8.46961 13.1023L8.53649 13.4288C8.58434 13.6624 8.63228 13.896 8.6803 14.1296C8.74975 14.4675 8.81897 14.8055 8.88811 15.1434C9.00035 15.692 9.11268 16.2406 9.22513 16.7892L9.24548 16.8885C9.341 17.3544 9.43662 17.8204 9.53227 18.2863L9.55272 18.386L9.57314 18.4855C9.68543 19.0325 9.79747 19.5795 9.90931 20.1266C9.97207 20.4336 10.035 20.7406 10.0982 21.0475C10.1575 21.3357 10.2165 21.6239 10.2753 21.9122C10.297 22.0182 10.3188 22.1241 10.3407 22.2301C10.3705 22.3742 10.3999 22.5184 10.4292 22.6626L10.456 22.7908L10.4794 22.9075L10.5001 23.0084C10.5187 23.177 10.4428 23.2951 10.3573 23.4284C10.3486 23.4421 10.3397 23.4559 10.3308 23.47C10.2495 23.5679 10.1738 23.6257 10.0623 23.6876C9.71174 23.6473 9.33088 23.4479 8.9828 23.2656C8.85878 23.2006 8.73891 23.1379 8.62606 23.0853C8.47544 23.015 8.32468 22.9451 8.17388 22.8753C7.79961 22.7019 7.42557 22.528 7.05154 22.3541C6.73469 22.2068 6.41775 22.0597 6.10066 21.9129C5.9528 21.8443 5.80509 21.7755 5.65738 21.7066L5.38309 21.5795L5.2605 21.5221C4.76629 21.2943 4.27266 21.0732 3.73061 21.2461C3.41309 21.3799 3.16255 21.5698 3.0112 21.8814C2.99077 22.0504 2.98388 22.1605 3.06306 22.3132C3.18695 22.4598 3.33197 22.5556 3.49035 22.6602L3.50651 22.6709L3.61601 22.7446C3.73701 22.8259 3.85837 22.9066 3.97973 22.9874L3.98045 22.9878C4.06745 23.0461 4.15442 23.1044 4.24138 23.1628C4.4779 23.3213 4.71475 23.4793 4.9517 23.6372C5.09995 23.736 5.24813 23.835 5.39629 23.934C5.88717 24.2619 6.37827 24.5895 6.86964 24.9167L6.94989 24.9702L7.03024 25.0237C7.45853 25.3089 7.8863 25.5949 8.31384 25.8813C8.75387 26.176 9.1943 26.4701 9.63511 26.7636C9.88215 26.9281 10.129 27.0929 10.3755 27.2582C10.6079 27.4141 10.8408 27.5693 11.0741 27.7239C11.1591 27.7803 11.2439 27.8371 11.3285 27.8941C11.9835 28.3353 12.6822 28.7416 13.4725 28.8704L13.5895 28.8909C14.5127 29.0398 15.4124 28.8571 16.3139 28.674C16.4162 28.6533 16.5186 28.6325 16.621 28.6122C16.7779 28.5812 16.935 28.5509 17.0921 28.5206C18.1748 28.3085 19.1042 28.0022 19.9484 27.271L20.0745 27.1622C20.9851 26.3138 21.4749 25.1382 21.5622 23.9072C21.5764 23.3497 21.4918 22.8072 21.3962 22.2593C21.3732 22.1243 21.3531 21.9888 21.3333 21.8533C21.2817 21.5042 21.2258 21.1558 21.1699 20.8074L21.1692 20.8025C21.1048 20.4011 21.0416 19.9996 20.9819 19.5974C20.9552 19.4201 20.927 19.243 20.8987 19.066C20.8543 18.7892 20.812 18.5122 20.771 18.2349C20.7533 18.1178 20.735 18.0009 20.7162 17.884L20.7001 17.7845C20.6851 17.6917 20.67 17.5989 20.6548 17.5061C20.6362 17.3827 20.6208 17.2616 20.6085 17.1377C20.5771 16.8775 20.4947 16.6503 20.289 16.4788C19.9801 16.2596 19.7217 16.1875 19.3514 16.281Z" fill="white"/>
<path d="M6.22479 12.24C6.04095 11.578 6.18822 10.164 7.21655 9.37843C7.62964 8.9988 8.83134 8.29753 10.224 8.83418C11.5967 9.3627 11.9087 10.4865 12.101 11.0465" stroke="white" stroke-width="1.5" stroke-linecap="round" stroke-linejoin="round"/>
<path fill-rule="evenodd" clip-rule="evenodd" d="M25 7C25 9.76142 22.7614 12 20 12C17.2386 12 15 9.76142 15 7C15 4.23858 17.2386 2 20 2C22.7614 2 25 4.23858 25 7ZM22.8223 8.87087H20.0379V8.12154H20.9845V5.94719H20.9345L20.0379 6.56505V5.73422L20.9845 5.07692H21.9231V8.12154H22.8223V8.87087ZM18.4289 8.61846V7.5773H19.4385V6.78328H18.4289V5.74211H17.5481V6.78328H16.5385V7.5773H17.5481V8.61846H18.4289Z" fill="white"/>
</svg>
