<svg width="86" height="86" viewBox="0 0 86 86" fill="none" xmlns="http://www.w3.org/2000/svg">
<g clip-path="url(#clip0_13_3473)">
<path d="M64.5 40.3125C64.5 43.3359 62.098 46.1242 58.05 48.375C52.1711 51.6336 42.7984 53.75 32.25 53.75C22.2391 53.75 13.2863 51.852 7.35703 48.8621C7.03789 48.7109 6.73555 48.543 6.4332 48.375C2.40195 46.1242 0 43.3359 0 40.3125C0 32.8883 14.4453 26.875 32.25 26.875C50.0547 26.875 64.5 32.8883 64.5 40.3125ZM32.25 59.125C41.6898 59.125 50.4914 57.5461 57.1262 54.7746C59.8641 53.6324 62.4172 52.2215 64.5 50.4914V56.4375C64.5 59.4609 62.098 62.2492 58.05 64.5C57.7477 64.668 57.4453 64.8191 57.1262 64.9871C51.2137 67.977 42.2609 69.875 32.25 69.875C21.7016 69.875 12.3289 67.7586 6.45 64.5C2.40195 62.2492 0 59.4609 0 56.4375V50.4914C2.09961 52.2215 4.63594 53.6324 7.37383 54.7746C14.0086 57.5461 22.8102 59.125 32.25 59.125ZM57.1262 70.8996C59.8641 69.7574 62.4172 68.3465 64.5 66.6164V72.5625C64.5 79.9867 50.0547 86 32.25 86C14.4453 86 0 79.9867 0 72.5625V66.6164C2.09961 68.3465 4.63594 69.7574 7.37383 70.8996C14.0086 73.6711 22.8102 75.25 32.25 75.25C41.6898 75.25 50.4914 73.6711 57.1262 70.8996Z" fill="#016BE6"/>
<path opacity="0.4" d="M86 13.4375C86 16.4609 83.598 19.2492 79.55 21.5C74.6621 24.2043 67.3723 26.1191 59.0074 26.6902C58.3859 26.3879 57.7645 26.1023 57.1094 25.8504C50.4914 23.0789 41.6898 21.5 32.25 21.5C30.8559 21.5 29.4953 21.5336 28.1348 21.6008C28.0676 21.5672 28.0172 21.5336 27.95 21.5C23.902 19.2492 21.5 16.4609 21.5 13.4375C21.5 6.01328 35.9453 0 53.75 0C71.5547 0 86 6.01328 86 13.4375ZM69.875 57.3277V46.7121C73.0664 46.0066 76.0059 45.1164 78.6262 44.0246C81.3641 42.8824 83.9172 41.4715 86 39.7414V45.6875C86 50.6594 79.5164 55.0098 69.875 57.3277ZM69.875 41.2027V40.3125C69.875 36.634 68.0945 33.6105 65.827 31.343C70.5805 30.6039 74.9309 29.4281 78.6262 27.8996C81.3641 26.7574 83.9172 25.3465 86 23.6164V29.5625C86 32.5859 83.598 35.3742 79.55 37.625C79.2477 37.793 78.9453 37.9441 78.6262 38.1121C76.1738 39.3551 73.2176 40.3965 69.8582 41.2027H69.875Z" fill="#016BE6"/>
</g>
<defs>
<clipPath id="clip0_13_3473">
<rect width="86" height="86" fill="white"/>
</clipPath>
</defs>
</svg>
