<svg width="55" height="54" viewBox="0 0 55 54" fill="none" xmlns="http://www.w3.org/2000/svg">
<rect x="0.5" width="54" height="54" rx="16" fill="url(#paint0_linear_894_9486)"/>
<path d="M27.5002 22.4106C26.2812 22.4106 25.1121 22.894 24.2502 23.7546C23.3882 24.6151 22.9039 25.7822 22.9039 26.9992C22.9039 28.2162 23.3882 29.3833 24.2502 30.2439C25.1121 31.1044 26.2812 31.5879 27.5002 31.5879C28.7192 31.5879 29.8883 31.1044 30.7503 30.2439C31.6123 29.3833 32.0965 28.2162 32.0965 26.9992C32.0965 25.7822 31.6123 24.6151 30.7503 23.7546C29.8883 22.894 28.7192 22.4106 27.5002 22.4106Z" fill="white"/>
<path fill-rule="evenodd" clip-rule="evenodd" d="M20.1035 14.408C25.0195 13.864 29.9806 13.864 34.8965 14.408C37.5822 14.7073 39.7474 16.8181 40.0628 19.5092C40.6457 24.4856 40.6457 29.5129 40.0628 34.4893C39.7474 37.1804 37.5822 39.2912 34.8979 39.5919C29.9815 40.136 25.0199 40.136 20.1035 39.5919C17.4179 39.2912 15.2527 37.1804 14.9373 34.4907C14.3542 29.5138 14.3542 24.4861 14.9373 19.5092C15.2527 16.8181 17.4179 14.7073 20.1035 14.408ZM34.5713 18.5279C34.1962 18.5279 33.8365 18.6766 33.5712 18.9414C33.306 19.2062 33.157 19.5653 33.157 19.9398C33.157 20.3142 33.306 20.6734 33.5712 20.9381C33.8365 21.2029 34.1962 21.3517 34.5713 21.3517C34.9463 21.3517 35.3061 21.2029 35.5713 20.9381C35.8365 20.6734 35.9855 20.3142 35.9855 19.9398C35.9855 19.5653 35.8365 19.2062 35.5713 18.9414C35.3061 18.6766 34.9463 18.5279 34.5713 18.5279ZM20.7824 26.9992C20.7824 25.2206 21.4901 23.5148 22.7499 22.257C24.0097 20.9993 25.7184 20.2928 27.5 20.2928C29.2817 20.2928 30.9903 20.9993 32.2501 22.257C33.5099 23.5148 34.2177 25.2206 34.2177 26.9992C34.2177 28.7779 33.5099 30.4837 32.2501 31.7414C30.9903 32.9991 29.2817 33.7057 27.5 33.7057C25.7184 33.7057 24.0097 32.9991 22.7499 31.7414C21.4901 30.4837 20.7824 28.7779 20.7824 26.9992Z" fill="white"/>
<defs>
<linearGradient id="paint0_linear_894_9486" x1="0.5" y1="54" x2="56.8067" y2="52.7452" gradientUnits="userSpaceOnUse">
<stop stop-color="#264DD0"/>
<stop offset="1" stop-color="#5931AE"/>
</linearGradient>
</defs>
</svg>
