<svg width="28" height="28" viewBox="0 0 28 28" fill="none" xmlns="http://www.w3.org/2000/svg">
<g clip-path="url(#clip0_413_843)">
<path d="M2.3335 12.5417V14H5.25016V12.5417V9.62504H17.769L16.6115 10.7826L15.5815 11.8125L17.646 13.877L18.6759 12.847L22.3218 9.20121L23.3563 8.16671L22.3263 7.13676L18.6805 3.49093L17.646 2.45642L15.5815 4.52087L16.6115 5.55082L17.769 6.70837H3.79183H2.3335V8.16671V12.5417ZM25.6668 15.4584V14H22.7502V15.4584V18.375H10.2313L11.3888 17.2175L12.4188 16.1875L10.3543 14.1231L9.32438 15.153L5.67855 18.7989L4.64404 19.8334L5.67399 20.8633L9.31982 24.5092L10.3543 25.5437L12.4188 23.4792L11.3888 22.4493L10.2313 21.2917H24.2085H25.6668V19.8334V15.4584Z" fill="white"/>
</g>
<defs>
<clipPath id="clip0_413_843">
<rect width="23.3333" height="23.3333" fill="white" transform="translate(2.3335 2.33337)"/>
</clipPath>
</defs>
</svg>
