<svg width="55" height="54" viewBox="0 0 55 54" fill="none" xmlns="http://www.w3.org/2000/svg">
<rect x="0.5" width="54" height="54" rx="16" fill="url(#paint0_linear_894_9476)"/>
<path d="M16.2871 25.471C23.2677 22.3665 27.9215 20.3198 30.2484 19.3309C36.8998 16.5072 38.2802 16.0168 39.1818 16.0001C39.3801 15.9969 39.8215 16.0469 40.1096 16.2847C40.349 16.4852 40.4163 16.7564 40.45 16.9468C40.4799 17.137 40.5211 17.5705 40.4874 17.9089C40.1283 21.7741 38.5683 31.1539 37.7752 35.4832C37.4423 37.315 36.7801 37.9291 36.1404 37.9891C34.7488 38.1197 33.6938 37.051 32.3471 36.15C30.2409 34.7395 29.0513 33.8618 27.005 32.4857C24.6407 30.8953 26.1745 30.021 27.5212 28.5926C27.8729 28.2186 34.0006 22.5296 34.1165 22.0136C34.1315 21.9491 34.1465 21.7085 34.0043 21.5816C33.8659 21.4545 33.6601 21.498 33.5105 21.5324C33.2973 21.5813 29.9341 23.8531 23.4099 28.3474C22.456 29.0173 21.5918 29.3438 20.8137 29.3267C19.9607 29.3079 18.3147 28.8332 17.0914 28.4276C15.595 27.9299 14.4017 27.6667 14.5064 26.8215C14.5588 26.3815 15.1536 25.9312 16.2871 25.471Z" fill="white"/>
<defs>
<linearGradient id="paint0_linear_894_9476" x1="0.5" y1="54" x2="56.8067" y2="52.7452" gradientUnits="userSpaceOnUse">
<stop stop-color="#264DD0"/>
<stop offset="1" stop-color="#5931AE"/>
</linearGradient>
</defs>
</svg>
