<svg width="24" height="24" viewBox="0 0 24 24" fill="none" xmlns="http://www.w3.org/2000/svg">
<g clip-path="url(#clip0_4_1898)">
<path d="M8.11723 17.0352L6.91019 15.8281C6.57816 15.4961 6.46098 15.0156 6.60941 14.5703C6.7266 14.2227 6.88285 13.7695 7.07035 13.25H2.93754C2.6016 13.25 2.2891 13.0703 2.12113 12.7773C1.95316 12.4844 1.95707 12.125 2.12894 11.8359L4.17973 8.37891C4.68754 7.52344 5.60551 7 6.59769 7H9.81254C9.90629 6.84375 10 6.69922 10.0938 6.55859C13.293 1.83984 18.0586 1.68359 20.9024 2.20703C21.3555 2.28906 21.7071 2.64453 21.793 3.09766C22.3164 5.94531 22.1563 10.707 17.4414 13.9062C17.3047 14 17.1563 14.0938 17 14.1875V17.4023C17 18.3945 16.4766 19.3164 15.6211 19.8203L12.1641 21.8711C11.875 22.043 11.5157 22.0469 11.2227 21.8789C10.9297 21.7109 10.75 21.4023 10.75 21.0625V16.875C10.1993 17.0664 9.71879 17.2227 9.35551 17.3398C8.91801 17.4805 8.44144 17.3594 8.11332 17.0352H8.11723ZM17 8.5625C17.4144 8.5625 17.8119 8.39788 18.1049 8.10485C18.3979 7.81183 18.5625 7.4144 18.5625 7C18.5625 6.5856 18.3979 6.18817 18.1049 5.89514C17.8119 5.60212 17.4144 5.4375 17 5.4375C16.5856 5.4375 16.1882 5.60212 15.8952 5.89514C15.6022 6.18817 15.4375 6.5856 15.4375 7C15.4375 7.4144 15.6022 7.81183 15.8952 8.10485C16.1882 8.39788 16.5856 8.5625 17 8.5625Z" fill="white"/>
</g>
<defs>
<clipPath id="clip0_4_1898">
<rect width="20" height="20" fill="white" transform="translate(2 2)"/>
</clipPath>
</defs>
</svg>
