<svg width="20" height="20" viewBox="0 0 20 20" fill="none" xmlns="http://www.w3.org/2000/svg">
<g clip-path="url(#clip0_314_1433)">
<g filter="url(#filter0_d_314_1433)">
<path d="M3.94152 16.0586C3.89074 16.0078 3.45715 15.4023 4.07043 13.5586C4.20715 13.1523 4.38293 12.7227 4.60168 12.2734C5.05481 12.8281 5.5509 13.3789 6.08606 13.9102C6.62121 14.4414 7.16809 14.9414 7.72277 15.3945C7.27746 15.6133 6.84777 15.793 6.44152 15.9258C4.59777 16.5391 3.99231 16.1055 3.94152 16.0547V16.0586ZM6.00402 10C6.53137 9.28515 7.14856 8.5625 7.85559 7.85546C8.56262 7.14843 9.28527 6.53125 10.0001 6.0039C10.715 6.53125 11.4376 7.14843 12.1446 7.85546C12.8517 8.5625 13.4689 9.28515 13.9962 10C13.4689 10.7148 12.8517 11.4375 12.1446 12.1445C11.4376 12.8516 10.715 13.4687 10.0001 13.9961C9.28527 13.4687 8.56262 12.8516 7.85559 12.1445C7.14856 11.4375 6.53137 10.7148 6.00402 10ZM7.72668 4.60547C7.17199 5.05859 6.62121 5.55468 6.08996 6.08984C5.55871 6.625 5.05871 7.17187 4.60559 7.72656C4.38684 7.28125 4.20715 6.85156 4.07434 6.44531C3.46106 4.60156 3.89465 3.99609 3.94543 3.94531C3.99621 3.89453 4.60168 3.46093 6.44543 4.07422C6.85168 4.21093 7.28137 4.38672 7.72668 4.60547ZM10.0001 3C6.79309 1.07812 3.70715 0.644528 2.1759 2.17578C0.64465 3.70703 1.07824 6.79296 3.00012 10C1.07824 13.207 0.64465 16.293 2.1759 17.8242C3.70715 19.3555 6.79309 18.9219 10.0001 17C13.2071 18.9219 16.2931 19.3555 17.8243 17.8242C19.3556 16.293 18.922 13.207 17.0001 10C18.922 6.79296 19.3556 3.70703 17.8243 2.17578C16.2931 0.644528 13.2071 1.07812 10.0001 3ZM12.2736 4.60547C12.7189 4.38672 13.1486 4.20703 13.5587 4.07422C15.4025 3.46093 16.0079 3.89453 16.0587 3.94531C16.1095 3.99609 16.5431 4.60156 15.9298 6.44531C15.7931 6.85156 15.6173 7.28125 15.3986 7.72656C14.9454 7.17187 14.4493 6.62109 13.9142 6.08984C13.379 5.55859 12.8321 5.05859 12.2775 4.60547H12.2736ZM15.3946 12.2734C15.6134 12.7187 15.7931 13.1484 15.9259 13.5586C16.5392 15.4023 16.1056 16.0078 16.0548 16.0586C16.004 16.1094 15.3986 16.543 13.5548 15.9297C13.1486 15.793 12.7189 15.6172 12.2696 15.3984C12.8243 14.9453 13.3751 14.4492 13.9064 13.9141C14.4376 13.3789 14.9376 12.832 15.3907 12.2773L15.3946 12.2734ZM10.0001 11.5625L11.5626 10L10.0001 8.4375L8.43762 10L10.0001 11.5625Z" fill="#6157E2"/>
</g>
</g>
<defs>
<filter id="filter0_d_314_1433" x="-48.7495" y="-48.7496" width="117.499" height="117.499" filterUnits="userSpaceOnUse" color-interpolation-filters="sRGB">
<feFlood flood-opacity="0" result="BackgroundImageFix"/>
<feColorMatrix in="SourceAlpha" type="matrix" values="0 0 0 0 0 0 0 0 0 0 0 0 0 0 0 0 0 0 127 0" result="hardAlpha"/>
<feOffset/>
<feGaussianBlur stdDeviation="25"/>
<feComposite in2="hardAlpha" operator="out"/>
<feColorMatrix type="matrix" values="0 0 0 0 0.580392 0 0 0 0 0.941176 0 0 0 0 0.913725 0 0 0 1 0"/>
<feBlend mode="normal" in2="BackgroundImageFix" result="effect1_dropShadow_314_1433"/>
<feBlend mode="normal" in="SourceGraphic" in2="effect1_dropShadow_314_1433" result="shape"/>
</filter>
<clipPath id="clip0_314_1433">
<rect width="20" height="20" fill="white"/>
</clipPath>
</defs>
</svg>
