<svg xmlns="http://www.w3.org/2000/svg" width="24" height="24" fill="currentColor" viewBox="0 0 24 24">
  <g clip-path="url(#a)">
    <path d="M12.538 3.198a.835.835 0 0 0-1.08 0l-9.166 7.781a.836.836 0 0 0-.098 1.175.834.834 0 0 0 1.174.097l.854-.723v6.48A2.778 2.778 0 0 0 7 20.785h10a2.778 2.778 0 0 0 2.778-2.779v-6.479l.85.723a.831.831 0 0 0 1.174-.097.835.835 0 0 0-.097-1.175l-9.167-7.781Zm-6.65 14.81v-7.893L12 4.927l6.111 5.186v7.893A1.11 1.11 0 0 1 17 19.12h-1.667v-5.28c0-.768-.621-1.39-1.389-1.39h-3.889c-.767 0-1.388.622-1.388 1.39v5.28H7a1.11 1.11 0 0 1-1.111-1.112Zm4.445 1.11v-5.002h3.334v5.003h-3.334Z"/>
  </g>
  <defs>
    <clipPath id="a">
      <path d="M2 3h20v17.786H2z"/>
    </clipPath>
  </defs>
</svg>