<svg width="24" height="24" viewBox="0 0 24 24" fill="none" xmlns="http://www.w3.org/2000/svg">
<g clip-path="url(#clip0_4_1868)">
<path d="M21.9931 11.8715C21.9931 12.4965 21.4722 12.9861 20.8819 12.9861H19.7708L19.7951 18.5486C19.7951 18.6424 19.7882 18.7361 19.7778 18.8299V19.3889C19.7778 20.1562 19.1562 20.7778 18.3889 20.7778H17.8333C17.7951 20.7778 17.7569 20.7778 17.7188 20.7743C17.6701 20.7778 17.6215 20.7778 17.5729 20.7778H16.4444H15.6111C14.8438 20.7778 14.2222 20.1562 14.2222 19.3889V18.5556V16.3333C14.2222 15.7188 13.7257 15.2222 13.1111 15.2222H10.8889C10.2743 15.2222 9.77778 15.7188 9.77778 16.3333V18.5556V19.3889C9.77778 20.1562 9.15625 20.7778 8.38889 20.7778H7.55556H6.44792C6.39583 20.7778 6.34375 20.7743 6.29167 20.7708C6.25 20.7743 6.20833 20.7778 6.16667 20.7778H5.61111C4.84375 20.7778 4.22222 20.1562 4.22222 19.3889V15.5C4.22222 15.4688 4.22222 15.434 4.22569 15.4028V12.9861H3.11111C2.48611 12.9861 2 12.5 2 11.8715C2 11.559 2.10417 11.2812 2.34722 11.0382L11.25 3.27778C11.4931 3.03472 11.7708 3 12.0139 3C12.2569 3 12.5347 3.06944 12.7431 3.24306L21.6111 11.0382C21.8889 11.2812 22.0278 11.559 21.9931 11.8715Z" fill="white"/>
</g>
<defs>
<clipPath id="clip0_4_1868">
<rect width="20" height="17.7778" fill="white" transform="translate(2 3)"/>
</clipPath>
</defs>
</svg>
