<svg xmlns="http://www.w3.org/2000/svg" width="24" height="24" fill="currentColor" viewBox="0 0 24 24">
  <path d="M21.993 11.871c0 .625-.52 1.115-1.111 1.115H19.77l.024 5.563c0 .093-.007.187-.017.28v.56c0 .767-.622 1.389-1.39 1.389h-.555c-.038 0-.076 0-.114-.004-.049.004-.098.004-.146.004H15.61a1.389 1.389 0 0 1-1.389-1.39V16.334a1.11 1.11 0 0 0-1.11-1.11h-2.223a1.11 1.11 0 0 0-1.111 1.11v3.056c0 .767-.622 1.389-1.39 1.389h-1.94c-.052 0-.104-.004-.156-.007-.042.003-.084.007-.125.007H5.61a1.389 1.389 0 0 1-1.389-1.39V15.5c0-.031 0-.066.004-.097v-2.417H3.11A1.098 1.098 0 0 1 2 11.871c0-.312.104-.59.347-.833l8.903-7.76c.243-.243.52-.278.764-.278.243 0 .52.07.73.243l8.867 7.795c.278.243.417.521.382.833Z"/>
</svg>