<svg xmlns="http://www.w3.org/2000/svg" width="24" height="24" fill="currentColor" viewBox="0 0 24 24">
  <path d="M8.111 3h7.778c.92 0 1.67.757 1.635 1.674-.007.184-.014.368-.024.548h3.667c.461 0 .833.372.833.834 0 3.215-1.163 5.45-2.726 6.968-1.538 1.497-3.413 2.25-4.798 2.632-.813.226-1.368.903-1.368 1.584 0 .725.59 1.316 1.316 1.316h.91a1.11 1.11 0 1 1 0 2.222H8.666a1.11 1.11 0 1 1 0-2.222h.906c.726 0 1.316-.59 1.316-1.316 0-.681-.552-1.361-1.368-1.584-1.386-.382-3.26-1.135-4.795-2.632C3.163 11.507 2 9.271 2 6.056c0-.462.372-.834.833-.834H6.5c-.01-.18-.017-.36-.024-.548C6.44 3.757 7.19 3 8.11 3ZM6.625 6.889H3.698c.177 2.302 1.08 3.861 2.187 4.94.778.758 1.678 1.296 2.542 1.678-.788-1.4-1.486-3.49-1.802-6.618Zm8.944 6.618c.865-.382 1.764-.92 2.542-1.677 1.111-1.08 2.014-2.639 2.188-4.941h-2.927c-.316 3.128-1.014 5.219-1.803 6.618ZM12.25 6.003a.277.277 0 0 0-.496 0l-.667 1.351a.278.278 0 0 1-.208.153l-1.494.215a.276.276 0 0 0-.152.472l1.076 1.05a.28.28 0 0 1 .08.246l-.254 1.482c-.038.226.198.4.403.292l1.333-.695a.28.28 0 0 1 .258 0l1.333.702a.277.277 0 0 0 .403-.292l-.254-1.486a.284.284 0 0 1 .08-.246l1.076-1.05a.277.277 0 0 0-.152-.471l-1.49-.216a.273.273 0 0 1-.208-.152l-.667-1.355Z"/>
</svg>