<svg xmlns="http://www.w3.org/2000/svg" width="24" height="24" fill="currentColor" viewBox="0 0 24 24">
  <g clip-path="url(#a)">
    <path d="M8.142 4.667c.223 5.58 1.539 8.034 2.493 9.087.476.524.9.742 1.15.836.09.035.163.052.211.066.05-.01.122-.031.212-.066.25-.094.674-.312 1.15-.836.954-1.053 2.274-3.508 2.493-9.087H8.142ZM8.112 3h7.777c.92 0 1.67.757 1.635 1.674-.007.184-.014.368-.024.548h3.667c.461 0 .833.372.833.834 0 3.767-1.594 6.17-3.52 7.66-1.872 1.447-4.018 2-5.192 2.211a4.646 4.646 0 0 1-.455.212v2.972h2.778c.462 0 .833.372.833.833a.831.831 0 0 1-.833.834H8.39a.831.831 0 0 1-.833-.834c0-.461.371-.833.833-.833h2.778V16.14a4.646 4.646 0 0 1-.455-.212c-1.174-.208-3.316-.764-5.191-2.212C3.594 12.225 2 9.823 2 6.055c0-.461.372-.833.833-.833H6.5c-.01-.18-.017-.36-.024-.548C6.44 3.757 7.19 3 8.11 3Zm7.457 10.507a9.093 9.093 0 0 0 1.89-1.111c1.41-1.087 2.635-2.785 2.843-5.507h-2.93c-.316 3.128-1.014 5.219-1.803 6.618Zm-9.027-1.111c.607.472 1.26.833 1.889 1.11-.789-1.398-1.487-3.489-1.803-6.617h-2.93c.208 2.722 1.434 4.42 2.844 5.507Zm5.708-5.837.504 1.017a.278.278 0 0 0 .208.153l1.125.163c.229.035.32.313.153.473l-.813.791a.28.28 0 0 0-.08.247l.191 1.118a.277.277 0 0 1-.403.291l-1.006-.527a.28.28 0 0 0-.258 0l-1.006.527a.277.277 0 0 1-.403-.291l.19-1.118a.284.284 0 0 0-.08-.247l-.812-.791a.277.277 0 0 1 .153-.473l1.125-.163c.09-.014.17-.07.208-.153l.504-1.017a.277.277 0 0 1 .496 0h.004Z"/>
  </g>
  <defs>
    <clipPath id="a">
      <path d="M2 3h20v17.778H2z"/>
    </clipPath>
  </defs>
</svg>