<svg xmlns="http://www.w3.org/2000/svg" width="320" height="42" fill="none" viewBox="0 0 320 42">
  <path fill="#fff" fill-opacity=".15" d="M297.303 13.389c1.083.27 1.624.406 2.081.658a3.993 3.993 0 0 1 1.569 1.569c.252.457.388.998.658 2.081a.401.401 0 0 0 .778 0c.27-1.083.406-1.624.658-2.081a3.993 3.993 0 0 1 1.569-1.57c.457-.251.998-.387 2.081-.657a.401.401 0 0 0 0-.778c-1.083-.27-1.624-.406-2.081-.658a3.993 3.993 0 0 1-1.569-1.569c-.252-.457-.388-.998-.658-2.081a.401.401 0 0 0-.778 0c-.27 1.083-.406 1.624-.658 2.081a3.993 3.993 0 0 1-1.569 1.57c-.457.251-.998.387-2.081.657a.401.401 0 0 0 0 .778ZM182.303 13.389c1.083.27 1.624.406 2.081.658a3.993 3.993 0 0 1 1.569 1.569c.252.457.388.998.658 2.081a.401.401 0 0 0 .778 0c.27-1.083.406-1.624.658-2.081a3.993 3.993 0 0 1 1.569-1.57c.457-.251.998-.387 2.081-.657a.401.401 0 0 0 0-.778c-1.083-.27-1.624-.406-2.081-.658a3.993 3.993 0 0 1-1.569-1.569c-.252-.457-.388-.998-.658-2.081a.401.401 0 0 0-.778 0c-.27 1.083-.406 1.624-.658 2.081a3.993 3.993 0 0 1-1.569 1.57c-.457.251-.998.387-2.081.657a.401.401 0 0 0 0 .778ZM206.303 30.389c1.083.27 1.624.406 2.081.658a3.993 3.993 0 0 1 1.569 1.569c.252.457.388.998.658 2.081a.401.401 0 0 0 .778 0c.27-1.083.406-1.624.658-2.081a3.993 3.993 0 0 1 1.569-1.57c.457-.251.998-.387 2.081-.657a.401.401 0 0 0 0-.778c-1.083-.27-1.624-.406-2.081-.658a3.993 3.993 0 0 1-1.569-1.569c-.252-.457-.388-.998-.658-2.081a.401.401 0 0 0-.778 0c-.27 1.083-.406 1.624-.658 2.081a3.993 3.993 0 0 1-1.569 1.57c-.457.251-.998.387-2.081.657a.401.401 0 0 0 0 .778ZM91.303 32.389c1.083.27 1.624.406 2.081.658a4 4 0 0 1 1.57 1.569c.251.457.387.998.657 2.081a.401.401 0 0 0 .778 0c.27-1.083.406-1.624.658-2.081a4 4 0 0 1 1.569-1.57c.457-.251.998-.387 2.081-.657a.401.401 0 0 0 0-.778c-1.083-.27-1.624-.406-2.081-.658a4 4 0 0 1-1.57-1.569c-.251-.457-.387-.998-.657-2.081a.401.401 0 0 0-.778 0c-.27 1.083-.406 1.624-.658 2.081a4 4 0 0 1-1.569 1.57c-.457.251-.998.387-2.081.657a.401.401 0 0 0 0 .778ZM40.303 30.389c1.083.27 1.624.406 2.081.658a4 4 0 0 1 1.57 1.569c.251.457.387.998.657 2.081a.401.401 0 0 0 .778 0c.27-1.083.406-1.624.658-2.081a4 4 0 0 1 1.569-1.57c.457-.251.998-.387 2.081-.657a.401.401 0 0 0 0-.778c-1.083-.27-1.624-.406-2.081-.658a4 4 0 0 1-1.57-1.569c-.251-.457-.387-.998-.657-2.081a.401.401 0 0 0-.778 0c-.27 1.083-.406 1.624-.658 2.081a4 4 0 0 1-1.569 1.57c-.457.251-.998.387-2.081.657a.401.401 0 0 0 0 .778ZM18.303 15.389c1.083.27 1.624.406 2.081.658a4 4 0 0 1 1.57 1.569c.251.457.387.998.657 2.081a.401.401 0 0 0 .778 0c.27-1.083.406-1.624.658-2.081a4 4 0 0 1 1.569-1.57c.457-.251.998-.387 2.081-.657a.401.401 0 0 0 0-.778c-1.083-.27-1.624-.406-2.081-.658a4 4 0 0 1-1.57-1.569c-.251-.457-.387-.998-.657-2.081a.401.401 0 0 0-.778 0c-.27 1.083-.406 1.624-.658 2.081a4 4 0 0 1-1.569 1.57c-.457.251-.998.387-2.081.657a.401.401 0 0 0 0 .778ZM269.454 30.083l1.444.36c1.355.34 2.033.509 2.584.861.488.312.902.726 1.214 1.214.352.551.522 1.229.86 2.584l.361 1.444a.602.602 0 0 0 1.166 0l.361-1.444c.338-1.355.508-2.033.86-2.584a3.996 3.996 0 0 1 1.214-1.214c.551-.352 1.229-.522 2.584-.86l1.444-.361a.602.602 0 0 0 0-1.166l-1.444-.36c-1.355-.34-2.033-.509-2.584-.861a3.996 3.996 0 0 1-1.214-1.214c-.352-.551-.522-1.229-.86-2.584l-.361-1.444a.602.602 0 0 0-1.166 0l-.361 1.444c-.338 1.355-.508 2.033-.86 2.584a3.996 3.996 0 0 1-1.214 1.214c-.551.352-1.229.522-2.584.86l-1.444.361a.602.602 0 0 0 0 1.166ZM150.454 30.083l1.444.36c1.355.34 2.033.509 2.584.861.488.312.902.726 1.214 1.214.352.551.522 1.229.86 2.584l.361 1.444a.602.602 0 0 0 1.166 0l.361-1.444c.338-1.355.508-2.033.86-2.584a3.996 3.996 0 0 1 1.214-1.214c.551-.352 1.229-.522 2.584-.86l1.444-.361a.602.602 0 0 0 0-1.166l-1.444-.36c-1.355-.34-2.033-.509-2.584-.861a3.996 3.996 0 0 1-1.214-1.214c-.352-.551-.522-1.229-.86-2.584l-.361-1.444a.602.602 0 0 0-1.166 0l-.361 1.444c-.338 1.355-.508 2.033-.86 2.584a3.996 3.996 0 0 1-1.214 1.214c-.551.352-1.229.522-2.584.86l-1.444.361a.601.601 0 0 0 0 1.166ZM235.484 12.622l1.789.447c1.355.338 2.033.508 2.584.86.488.312.902.726 1.214 1.214.352.551.522 1.229.86 2.584l.447 1.789a.642.642 0 0 0 1.244 0l.447-1.79c.338-1.354.508-2.032.86-2.583a3.996 3.996 0 0 1 1.214-1.214c.551-.352 1.229-.522 2.584-.86l1.789-.447a.642.642 0 0 0 0-1.244l-1.789-.447c-1.355-.338-2.033-.508-2.584-.86a3.997 3.997 0 0 1-1.214-1.214c-.352-.551-.522-1.229-.86-2.584l-.447-1.789a.642.642 0 0 0-1.244 0l-.447 1.79c-.338 1.354-.508 2.032-.86 2.583a3.997 3.997 0 0 1-1.214 1.214c-.551.352-1.229.522-2.584.86l-1.789.447a.642.642 0 0 0 0 1.244ZM118.484 12.622l1.789.447c1.355.338 2.033.508 2.584.86.488.312.902.726 1.214 1.214.352.551.522 1.229.86 2.584l.447 1.789a.642.642 0 0 0 1.244 0l.447-1.79c.338-1.354.508-2.032.86-2.583a3.996 3.996 0 0 1 1.214-1.214c.551-.352 1.229-.522 2.584-.86l1.789-.447a.642.642 0 0 0 0-1.244l-1.789-.447c-1.355-.338-2.033-.508-2.584-.86a3.997 3.997 0 0 1-1.214-1.214c-.352-.551-.522-1.229-.86-2.584l-.447-1.789a.642.642 0 0 0-1.244 0l-.447 1.79c-.338 1.354-.508 2.032-.86 2.583a3.997 3.997 0 0 1-1.214 1.214c-.551.352-1.229.522-2.584.86l-1.789.447a.642.642 0 0 0 0 1.244ZM63.484 12.622l1.79.447c1.354.338 2.032.508 2.583.86.488.312.902.726 1.214 1.214.352.551.522 1.229.86 2.584l.447 1.789a.642.642 0 0 0 1.244 0l.447-1.79c.338-1.354.508-2.032.86-2.583a3.998 3.998 0 0 1 1.214-1.214c.551-.352 1.229-.522 2.584-.86l1.789-.447a.642.642 0 0 0 0-1.244l-1.79-.447c-1.354-.338-2.032-.508-2.583-.86a3.999 3.999 0 0 1-1.214-1.214c-.352-.551-.522-1.229-.86-2.584l-.447-1.789a.642.642 0 0 0-1.244 0l-.447 1.79c-.338 1.354-.508 2.032-.86 2.583a3.999 3.999 0 0 1-1.214 1.214c-.551.352-1.229.522-2.584.86l-1.789.447a.642.642 0 0 0 0 1.244Z"/>
</svg>