<svg xmlns="http://www.w3.org/2000/svg" width="24" height="24" viewBox="0 0 24 24">
  <path fill="#8995EC" d="M4 16.56l3.176-1.68L12.06 21 4 16.56z"/>
  <path fill="#D137D2" d="M12.062 21L20 16.44l-3.175-1.56L12.062 21z"/>
  <path fill="#BDC5FC" d="M7.175 14.88h9.648L12.06 21l-4.885-6.12z"/>
  <path fill="#72A5E9" d="M4 16.56v-9l3.176 7.32L4 16.56z"/>
  <path fill="#84C2F8" d="M4 7.56l7.939-.96-4.763 8.28L4 7.56z"/>
  <path fill="#D02FC8" d="M16.824 14.88L20 7.44v9l-3.176-1.56z"/>
  <path fill="#925DE7" d="M20 7.44l-8.062-.84 4.886 8.28 3.175-7.44z"/>
  <path fill="#725CDD" d="M11.938 3L20 7.44l-8.06-.84V3z"/>
  <path fill="#7275E2" d="M11.939 3v3.6L4 7.56 11.939 3z"/>
  <path fill="#89B7F3" d="M11.938 6.6l4.885 8.28H7.175l4.763-8.28z"/>
</svg>