<svg xmlns="http://www.w3.org/2000/svg" width="68" height="55" fill="none" viewBox="0 0 68 55">
  <path fill="#fff" fill-opacity=".1" d="m.484 47.622 1.79.447c1.354.338 2.032.508 2.583.86.488.312.902.726 1.214 1.214.352.551.522 1.229.86 2.584l.447 1.789a.642.642 0 0 0 1.244 0l.447-1.79c.338-1.354.508-2.032.86-2.583a3.999 3.999 0 0 1 1.214-1.214c.551-.352 1.229-.522 2.584-.86l1.789-.447a.642.642 0 0 0 0-1.244l-1.79-.447c-1.354-.338-2.032-.508-2.583-.86a3.999 3.999 0 0 1-1.214-1.214c-.352-.551-.522-1.229-.86-2.584l-.447-1.789a.642.642 0 0 0-1.244 0l-.447 1.79c-.338 1.354-.508 2.032-.86 2.583a3.999 3.999 0 0 1-1.214 1.214c-.551.352-1.229.522-2.584.86l-1.789.447a.642.642 0 0 0 0 1.244ZM52.484 8.622l1.79.447c1.354.338 2.032.508 2.583.86.488.312.902.726 1.214 1.214.352.551.522 1.229.86 2.584l.447 1.789a.642.642 0 0 0 1.244 0l.447-1.79c.338-1.354.508-2.032.86-2.583a3.999 3.999 0 0 1 1.214-1.214c.551-.352 1.229-.522 2.584-.86l1.789-.447a.642.642 0 0 0 0-1.244l-1.79-.447c-1.354-.338-2.032-.508-2.583-.86a3.999 3.999 0 0 1-1.214-1.214c-.352-.551-.522-1.229-.86-2.584L60.622.484a.642.642 0 0 0-1.244 0l-.447 1.79c-.338 1.354-.508 2.032-.86 2.583a3.999 3.999 0 0 1-1.214 1.214c-.551.352-1.229.522-2.584.86l-1.789.447a.642.642 0 0 0 0 1.244ZM7.303 9.389c1.083.27 1.624.406 2.081.658a4 4 0 0 1 1.57 1.569c.251.457.387.998.657 2.081a.401.401 0 0 0 .778 0c.27-1.083.406-1.624.658-2.081a4 4 0 0 1 1.569-1.57c.457-.251.998-.387 2.081-.657a.401.401 0 0 0 0-.778c-1.083-.27-1.624-.406-2.081-.658a4 4 0 0 1-1.57-1.569c-.251-.457-.387-.998-.657-2.081a.401.401 0 0 0-.778 0c-.27 1.083-.406 1.624-.658 2.081a4 4 0 0 1-1.569 1.57c-.457.251-.998.387-2.081.657a.401.401 0 0 0 0 .778ZM52.303 43.389c1.083.27 1.624.406 2.081.658a4 4 0 0 1 1.57 1.569c.251.457.387.998.657 2.081a.401.401 0 0 0 .778 0c.27-1.083.406-1.624.658-2.081a4 4 0 0 1 1.569-1.57c.457-.251.998-.387 2.081-.657a.401.401 0 0 0 0-.778c-1.083-.27-1.624-.406-2.081-.658a4 4 0 0 1-1.57-1.569c-.251-.457-.387-.998-.657-2.081a.401.401 0 0 0-.778 0c-.27 1.083-.406 1.624-.658 2.081a4 4 0 0 1-1.569 1.57c-.457.251-.998.387-2.081.657a.401.401 0 0 0 0 .778Z"/>
</svg>