<svg width="16" height="16" viewBox="0 0 16 16" fill="none" xmlns="http://www.w3.org/2000/svg">
<path d="M0.954102 8.58301L2.3984 8.94388C3.75331 9.28241 4.43077 9.45168 4.98201 9.80437C5.4696 10.1163 5.88367 10.5304 6.19563 11.018C6.54832 11.5692 6.71759 12.2467 7.05612 13.6016L7.41699 15.0459C7.48438 15.3125 7.72461 15.5 8 15.5C8.27539 15.5 8.51562 15.3125 8.58301 15.0459L8.94388 13.6016C9.28241 12.2467 9.45168 11.5692 9.80437 11.018C10.1163 10.5304 10.5304 10.1163 11.018 9.80437C11.5692 9.45168 12.2467 9.28241 13.6016 8.94388L15.0459 8.58301C15.3125 8.51562 15.5 8.27539 15.5 8C15.5 7.72461 15.3125 7.48438 15.0459 7.41699L13.6016 7.05612C12.2467 6.71759 11.5692 6.54832 11.018 6.19563C10.5304 5.88367 10.1163 5.4696 9.80437 4.98201C9.45168 4.43077 9.28241 3.75331 8.94388 2.3984L8.58301 0.954102C8.51562 0.6875 8.27539 0.5 8 0.5C7.72461 0.5 7.48438 0.6875 7.41699 0.954102L7.05612 2.3984C6.71759 3.75331 6.54832 4.43077 6.19563 4.98201C5.88367 5.4696 5.4696 5.88367 4.98201 6.19563C4.43077 6.54832 3.75331 6.71759 2.3984 7.05612L0.954102 7.41699C0.6875 7.48438 0.5 7.72461 0.5 8C0.5 8.27539 0.6875 8.51562 0.954102 8.58301Z" fill="url(#paint0_linear_1317_2024)" fill-opacity="0.2"/>
<defs>
<linearGradient id="paint0_linear_1317_2024" x1="0.5" y1="8" x2="15.5" y2="8" gradientUnits="userSpaceOnUse">
<stop stop-color="#1CE7FD"/>
<stop offset="1" stop-color="#365AE5"/>
</linearGradient>
</defs>
</svg>
