<svg xmlns="http://www.w3.org/2000/svg" fill="currentColor" viewBox="0 0 24 24">
  <path fill="url(#star-gradient)" d="m11.573 17.552-3.6 2.307a.775.775 0 0 1-1.094-.275.864.864 0 0 1-.092-.639l.557-2.294a2.86 2.86 0 0 1 1.48-1.89l3.928-1.971a.392.392 0 0 0 .172-.513.364.364 0 0 0-.394-.213l-4.373.792a2.97 2.97 0 0 1-2.491-.702l-1.382-1.21a.857.857 0 0 1-.098-1.171.784.784 0 0 1 .547-.295l4.22-.345a.799.799 0 0 0 .673-.51l1.628-4.11a.783.783 0 0 1 1.039-.45c.194.085.35.247.43.45l1.628 4.11a.799.799 0 0 0 .672.51l4.244.347c.438.036.765.436.73.894a.844.844 0 0 1-.276.567l-3.237 2.885a.854.854 0 0 0-.257.827l.995 4.321c.103.447-.16.895-.587 1.003a.765.765 0 0 1-.601-.1l-3.63-2.325a.766.766 0 0 0-.83 0Z"/>
  <defs>
    <linearGradient id="star-gradient" x1="15.788" x2="8.026" y1="7.172" y2="18.372" gradientUnits="userSpaceOnUse">
      <stop stop-color="#EF79D6"/>
      <stop offset="1" stop-color="#1891FF"/>
    </linearGradient>
  </defs>
</svg>