<svg width="94" height="94" viewBox="0 0 94 94" fill="none" xmlns="http://www.w3.org/2000/svg">
<g clip-path="url(#clip0_595_1547)">
<path d="M39.1788 28.8976C37.5632 25.6113 32.8816 25.6113 31.2659 28.8976L22.7655 46.1554L3.76359 48.9277C0.165157 49.4417 -1.28523 53.8847 1.3218 56.4367L15.073 69.8757L11.8417 88.841C11.2175 92.4394 14.9995 95.1933 18.2308 93.4859L35.2316 84.5265L52.2323 93.4859C55.4636 95.1933 59.2456 92.4394 58.6214 88.841L55.3718 69.8757L69.123 56.4367C71.73 53.8847 70.298 49.4417 66.6812 48.9277L47.6792 46.1554L39.1788 28.8976Z" fill="#01D8E6"/>
<path opacity="0.4" d="M57.2812 19.0938L59.8148 27.9613C60.0535 28.8059 60.8246 29.375 61.6875 29.375C62.5504 29.375 63.3215 28.8059 63.5602 27.9613L66.0938 19.0938L74.9613 16.5602C75.8059 16.3215 76.375 15.5504 76.375 14.6875C76.375 13.8246 75.8059 13.0535 74.9613 12.8148L66.0938 10.2812L63.5602 1.41367C63.3215 0.569141 62.5504 0 61.6875 0C60.8246 0 60.0535 0.569141 59.8148 1.41367L57.2812 10.2812L48.4137 12.8148C47.5691 13.0535 47 13.8246 47 14.6875C47 15.5504 47.5691 16.3215 48.4137 16.5602L57.2812 19.0938ZM78.725 44.65L80.7445 51.7367C80.9281 52.3977 81.5523 52.875 82.25 52.875C82.9477 52.875 83.5535 52.416 83.7555 51.7367L85.775 44.65L92.8617 42.6305C93.5227 42.4469 94 41.8227 94 41.125C94 40.4273 93.541 39.8215 92.8617 39.6195L85.775 37.6L83.7555 30.5133C83.5719 29.8523 82.9477 29.375 82.25 29.375C81.5523 29.375 80.9465 29.834 80.7445 30.5133L78.725 37.6L71.6383 39.6195C70.9773 39.8031 70.5 40.4273 70.5 41.125C70.5 41.8227 70.959 42.4285 71.6383 42.6305L78.725 44.65Z" fill="#01D8E6"/>
</g>
<defs>
<clipPath id="clip0_595_1547">
<rect width="94" height="94" fill="white"/>
</clipPath>
</defs>
</svg>
