<svg xmlns="http://www.w3.org/2000/svg" fill="none" viewBox="0 0 20 20">
  <path fill="url(#gradient)" fill-opacity=".2" d="m2.954 10.583 1.444.36c1.355.34 2.033.509 2.584.861.488.312.902.726 1.214 1.214.352.551.522 1.229.86 2.584l.361 1.444a.602.602 0 0 0 1.166 0l.36-1.444c.34-1.355.509-2.033.861-2.584a3.998 3.998 0 0 1 1.214-1.214c.551-.352 1.229-.522 2.584-.86l1.444-.361a.602.602 0 0 0 0-1.166l-1.444-.36c-1.355-.34-2.033-.509-2.584-.861a3.999 3.999 0 0 1-1.214-1.214c-.352-.551-.522-1.229-.86-2.584l-.361-1.444a.602.602 0 0 0-1.166 0l-.36 1.444c-.34 1.355-.509 2.033-.861 2.584a4 4 0 0 1-1.214 1.214c-.551.352-1.229.522-2.584.86l-1.444.361a.602.602 0 0 0 0 1.166Z"/>
  <defs>
    <linearGradient id="gradient" x1="0%" y1="0%" x2="100%" y2="0%">
      <stop offset="0%" stop-color="#1CE7FD"/>
      <stop offset="100%" stop-color="#365AE5"/>
    </linearGradient>
  </defs>
</svg>