<svg xmlns="http://www.w3.org/2000/svg" width="24" height="24" fill="none" viewBox="0 0 24 24">
  <path fill="#EF79D6" d="M11.52 17.4l-4.051 2.45a.901.901 0 0 1-1.23-.292.873.873 0 0 1-.104-.679l.627-2.437a3.073 3.073 0 0 1 1.665-2.008l4.419-2.095a.406.406 0 0 0 .194-.545.415.415 0 0 0-.444-.226l-4.919.841a3.48 3.48 0 0 1-2.803-.745L3.32 10.378a.876.876 0 0 1-.111-1.244.898.898 0 0 1 .616-.313l4.748-.367a.894.894 0 0 0 .756-.543l1.832-4.366a.898.898 0 0 1 1.652 0l1.832 4.366a.894.894 0 0 0 .756.543l4.774.369c.493.038.86.463.822.949a.88.88 0 0 1-.311.603l-3.641 3.065a.876.876 0 0 0-.29.879l1.12 4.591a.883.883 0 0 1-.66 1.066.904.904 0 0 1-.677-.106l-4.084-2.47a.904.904 0 0 0-.934 0Z"/>
  <path fill="#1891FF" fill-opacity="0.5" d="M11.52 17.4l-4.051 2.45a.901.901 0 0 1-1.23-.292.873.873 0 0 1-.104-.679l.627-2.437a3.073 3.073 0 0 1 1.665-2.008l4.419-2.095a.406.406 0 0 0 .194-.545.415.415 0 0 0-.444-.226l-4.919.841a3.48 3.48 0 0 1-2.803-.745L3.32 10.378a.876.876 0 0 1-.111-1.244.898.898 0 0 1 .616-.313l4.748-.367a.894.894 0 0 0 .756-.543l1.832-4.366a.898.898 0 0 1 1.652 0l1.832 4.366a.894.894 0 0 0 .756.543l4.774.369c.493.038.86.463.822.949a.88.88 0 0 1-.311.603l-3.641 3.065a.876.876 0 0 0-.29.879l1.12 4.591a.883.883 0 0 1-.66 1.066.904.904 0 0 1-.677-.106l-4.084-2.47a.904.904 0 0 0-.934 0Z"/>
</svg>