<svg xmlns="http://www.w3.org/2000/svg" width="24" height="24" fill="currentColor" viewBox="0 0 24 24">
  <path d="M8.117 17.035 6.91 15.828a1.222 1.222 0 0 1-.301-1.258c.117-.347.273-.8.46-1.32H2.938a.942.942 0 0 1-.816-.473.933.933 0 0 1 .007-.941L4.18 8.379A2.811 2.811 0 0 1 6.597 7h3.215c.094-.156.188-.3.281-.441 3.2-4.72 7.965-4.875 10.809-4.352.453.082.805.438.89.89.524 2.848.364 7.61-4.351 10.81a8.646 8.646 0 0 1-.441.28v3.215c0 .992-.524 1.914-1.38 2.418l-3.456 2.051a.937.937 0 0 1-1.414-.809v-4.187c-.551.191-1.032.348-1.395.465-.437.14-.914.02-1.242-.305h.004ZM17 8.562a1.562 1.562 0 1 0 0-3.124 1.562 1.562 0 0 0 0 3.125Z"/>
</svg>