<svg xmlns="http://www.w3.org/2000/svg" width="24" height="24" fill="currentColor" viewBox="0 0 24 24">
  <g clip-path="url(#a)">
    <path d="M16.387 12.352c-1.739 1.175-5.051 2.664-6.864 3.437l-1.367-1.367c.797-1.8 2.313-5.078 3.489-6.813 2.43-3.578 5.918-3.972 8.39-3.644.332 2.473-.066 5.96-3.644 8.387h-.004Zm-9.758.898c-.14.313-.266.594-.367.828a1.23 1.23 0 0 0 .261 1.363l1.98 1.98c.356.356.888.466 1.349.27.253-.105.558-.234.898-.382v3.757c0 .336.18.649.473.817a.933.933 0 0 0 .941-.008l3.457-2.05A2.811 2.811 0 0 0 17 17.405v-3.215c.156-.097.3-.191.441-.285 4.72-3.199 4.875-7.965 4.352-10.808a1.11 1.11 0 0 0-.89-.891c-2.844-.523-7.61-.367-10.81 4.352-.093.14-.19.285-.284.441H6.602c-.993 0-1.914.523-2.418 1.379l-2.051 3.457a.935.935 0 0 0 .805 1.414h3.69Zm11.309-5.625a1.563 1.563 0 1 0-3.126 0 1.563 1.563 0 0 0 3.126 0Z"/>
  </g>
  <defs>
    <clipPath id="a">
      <path d="M2 2h20v20H2z"/>
    </clipPath>
  </defs>
</svg>