<svg xmlns="http://www.w3.org/2000/svg" fill="currentColor" viewBox="0 0 20 20">
  <path d="M6 10c1.934 0 3.5-1.566 3.5-3.5S7.934 3 6 3a3.498 3.498 0 0 0-3.5 3.5C2.5 8.434 4.066 10 6 10Zm2.4 1h-.26c-.65.313-1.371.5-2.14.5a4.933 4.933 0 0 1-2.14-.5H3.6A3.6 3.6 0 0 0 0 14.6v.9A1.5 1.5 0 0 0 1.5 17h9a1.5 1.5 0 0 0 1.5-1.5v-.9A3.6 3.6 0 0 0 8.4 11Zm6.6-1a3 3 0 1 0-.002-6.002A3 3 0 0 0 15 10Zm1.5 1h-.119a4.21 4.21 0 0 1-1.381.25c-.488 0-.947-.1-1.381-.25H13.5c-.637 0-1.225.184-1.74.481A4.574 4.574 0 0 1 13 14.6v1.2c0 .069-.016.134-.019.2H18.5a1.5 1.5 0 0 0 1.5-1.5c0-1.934-1.566-3.5-3.5-3.5Z"/>
</svg>