<svg xmlns="http://www.w3.org/2000/svg" fill="currentColor" viewBox="0 0 24 24">
  <g clip-path="url(#a)">
    <path fill="#fff" d="M17.48 5.754A6.243 6.243 0 0 0 11.75 2a6.243 6.243 0 0 0-5.73 3.754A1.25 1.25 0 0 0 4.875 7v2.5a1.25 1.25 0 0 0 1.145 1.246 6.243 6.243 0 0 0 5.73 3.754 6.243 6.243 0 0 0 5.73-3.754A1.25 1.25 0 0 0 18.625 9.5V7a1.25 1.25 0 0 0-1.145-1.246Zm-1.355 1.871v.625c0 2.07-1.68 3.75-3.75 3.75h-1.25c-2.07 0-3.75-1.68-3.75-3.75v-.625c0-1.035.84-1.875 1.875-1.875h5c1.035 0 1.875.84 1.875 1.875Zm-5.73.73-.235-.828a.293.293 0 0 0-.285-.215.293.293 0 0 0-.285.215l-.235.828-.828.235a.293.293 0 0 0-.214.285c0 .133.085.25.214.285l.828.235.235.828a.293.293 0 0 0 .285.214c.133 0 .25-.085.285-.214l.235-.828.828-.235a.293.293 0 0 0 .214-.285.293.293 0 0 0-.214-.285l-.829-.235Zm-2.993 6.008A6.964 6.964 0 0 0 3 20.84c0 .64.52 1.16 1.16 1.16H8v-2.5c0-.691.559-1.25 1.25-1.25h5c.691 0 1.25.559 1.25 1.25V22h3.84c.64 0 1.16-.52 1.16-1.16a6.964 6.964 0 0 0-4.402-6.477 7.485 7.485 0 0 1-4.348 1.387 7.484 7.484 0 0 1-4.348-1.387ZM9.875 19.5a.627.627 0 0 0-.625.625V22h1.25v-1.875a.627.627 0 0 0-.625-.625Zm3.75 1.25a.624.624 0 1 0 0-1.249.624.624 0 0 0 0 1.249Z"/>
  </g>
  <defs>
    <clipPath id="a">
      <path fill="#fff" d="M3 2h17.5v20H3z"/>
    </clipPath>
  </defs>
</svg>